Coordinates
version=1
nRows=7
nColumns=42
inDegrees=yes

Units are S.I. units (second, meters, Newtons, ...)
If the header above contains a line with 'inDegrees', this indicates whether rotational values are in degrees (yes) or radians (no).

endheader
time	pelvis_tilt	pelvis_list	pelvis_rotation	pelvis_tx	pelvis_ty	pelvis_tz	hip_flexion_r	hip_adduction_r	hip_rotation_r	knee_angle_r	knee_adduction_r	knee_angle_r_beta	ankle_angle_r	subtalar_angle_r	mtp_angle_r	hip_flexion_l	hip_adduction_l	hip_rotation_l	knee_angle_l	knee_adduction_l	knee_angle_l_beta	ankle_angle_l	subtalar_angle_l	mtp_angle_l	lumbar_extension	lumbar_bending	lumbar_rotation	arm_flex_r	arm_add_r	arm_rot_r	elbow_flex_r	pro_sup_r	wrist_flex_r	wrist_dev_r	arm_flex_l	arm_add_l	arm_rot_l	elbow_flex_l	pro_sup_l	wrist_flex_l	wrist_dev_l
      2.57000000	      9.93378594	      0.04622231	      0.42586998	     -0.26249147	      0.92949131	      0.15886977	      7.12027332	     -3.96442470	     -4.91824755	     68.83103928	      0.02041641	      1.20132826	      3.53808414	    -15.55500517	     -7.50785041	     13.69797999	      2.48722410	    -31.48066822	     32.19790642	    -16.36032810	      0.56195948	     19.91984492	     30.12307416	     -7.50785041	    -41.05509301	     -5.58822196	     -3.26499717	      6.53566171	     -8.48839697	      7.67242851	     41.54809534	     90.00000001	      0.00000000	      0.00000000	     -1.38846106	    -13.09139681	      7.26281524	     45.07495057	     90.00000001	      0.00000000	      0.00000000
      2.58000000	      9.88656624	      0.10293293	      0.39692363	     -0.25812174	      0.92982064	      0.15813619	      8.44221715	     -4.01563335	     -4.21397278	     69.68125132	      0.43220770	      1.21616726	      3.70876828	    -15.65438671	     -7.50769887	     13.30165641	      2.73904446	    -31.16018910	     31.98487804	    -16.25600006	      0.55824143	     20.30408754	     29.73806225	     -7.50769887	    -41.01235298	     -5.67221890	     -3.38274940	      6.59327135	     -8.45080392	      7.58610011	     41.61813710	     90.00000001	      0.00000000	      0.00000000	     -1.34370909	    -13.16646160	      7.46320523	     44.87469777	     90.00000001	      0.00000000	      0.00000000
      2.59000000	     10.03486790	      0.01340607	      0.40653984	     -0.25364510	      0.93048900	      0.15750890	      9.45567673	     -3.87259128	     -4.01373669	     70.22942593	      0.46815271	      1.22573471	      3.81617111	    -15.39860704	     -7.50761972	     12.67825712	      2.67668035	    -30.95902763	     31.88594958	    -16.01412487	      0.55651481	     20.34964740	     29.41865469	     -7.50761972	    -41.15485221	     -5.56175577	     -3.41057022	      6.66091469	     -8.36393646	      7.57294154	     41.73287712	     90.00000001	      0.00000000	      0.00000000	     -1.36413348	    -13.28853747	      7.47054588	     44.85922527	     90.00000001	      0.00000000	      0.00000000
      2.60000000	      9.80360890	      0.17766958	      0.23899655	     -0.24942015	      0.93047646	      0.15704365	     11.04075345	     -4.06062964	     -2.34037055	     70.96715944	      1.75548643	      1.23861059	      4.01730941	    -16.01541450	     -7.50733129	     12.40854282	      3.04366020	    -30.72855766	     31.50206216	    -15.84645715	      0.54981471	     20.92636765	     28.98824849	     -7.50733129	    -40.89640726	     -5.81234467	     -3.40907252	      6.69195699	     -8.23146765	      7.33748790	     41.63176777	     90.00000001	      0.00000000	      0.00000000	     -1.18907966	    -13.42747093	      7.87849543	     44.39568465	     90.00000001	      0.00000000	      0.00000000
      2.61000000	      9.85421235	      0.20508581	      0.20230156	     -0.24497714	      0.93098110	      0.15657717	     12.17777071	     -4.01831033	     -2.19387145	     71.27851314	      1.69296392	      1.24404474	      4.19424367	    -15.95566896	     -7.50725372	     11.83695730	      3.13209579	    -30.70508795	     31.20739289	    -15.66901572	      0.54467176	     21.05880496	     28.78363669	     -7.50725372	    -40.93485568	     -5.85007113	     -3.48001518	      6.72960534	     -8.15320883	      7.31016191	     41.70815592	     90.00000001	      0.00000000	      0.00000000	     -1.18602864	    -13.56266886	      7.87171940	     44.40449138	     90.00000001	      0.00000000	      0.00000000
      2.62000000	      9.77354584	      0.29823259	      0.15837540	     -0.24059693	      0.93119686	      0.15610015	     13.47692114	     -4.10906559	     -1.65341199	     71.54170726	      2.09272038	      1.24863834	      4.40064541	    -16.07298275	     -7.50708701	     11.43028476	      3.37218487	    -30.70756359	     30.83476914	    -15.65682441	      0.53816825	     21.41924321	     28.91423550	     -7.50708701	    -40.83635283	     -5.95970897	     -3.56557146	      6.73747437	     -8.02024800	      7.17730334	     41.67041039	     90.00000001	      0.00000000	      0.00000000	     -1.16598427	    -13.71613715	      7.92169082	     44.34380450	     90.00000001	      0.00000000	      0.00000000
      2.63000000	      9.84774976	      0.26542055	      0.28438862	     -0.23621302	      0.93170245	      0.15554940	     14.44059828	     -4.03834884	     -1.65270581	     71.42390968	      2.14534020	      1.24658239	      4.45509792	    -15.62008387	     -7.50701621	     10.98809533	      3.37254171	    -30.49423543	     30.87733844	    -15.52498835	      0.53891122	     21.34407666	     28.61294143	     -7.50701621	    -40.92549357	     -5.83655292	     -3.66235421	      6.67403498	     -8.00419506	      7.15928096	     41.76139459	     90.00000001	      0.00000000	      0.00000000	     -1.12527649	    -13.81480300	      7.88683740	     44.43462996	     90.00000001	      0.00000000	      0.00000000
